<svg xmlns="http://www.w3.org/2000/svg" viewBox="0 0 60.96 68.75"><defs><style>.cls-1{fill:#d9d9d9;}</style></defs><title>Asset 8compositor_icon</title><g id="Layer_2" data-name="Layer 2"><g id="Capa_1" data-name="Capa 1"><path class="cls-1" d="M6.26,51.22c-.72,1.48-2.39,4.33-5,5.47a.45.45,0,0,0,0,.84c2.63,1.14,4.3,4,5,5.47a.45.45,0,0,0,.81,0c.72-1.48,2.39-4.33,5-5.47a.45.45,0,0,0,0-.84c-2.63-1.14-4.3-4-5-5.47a.45.45,0,0,0-.81,0Zm0,0"/><path class="cls-1" d="M46.6.72c-.93,1.92-3.11,5.62-6.52,7.1a.59.59,0,0,0,0,1.09c3.41,1.48,5.59,5.18,6.52,7.1a.59.59,0,0,0,1.06,0c.93-1.92,3.11-5.62,6.52-7.1a.59.59,0,0,0,0-1.09c-3.41-1.48-5.59-5.18-6.52-7.1a.59.59,0,0,0-1.06,0Zm0,0"/><path class="cls-1" d="M32.94,11.87c-.58,1.19-1.93,3.49-4,4.41a.37.37,0,0,0,0,.67c2.12.92,3.47,3.22,4,4.41a.36.36,0,0,0,.66,0c.58-1.19,1.93-3.49,4-4.41a.37.37,0,0,0,0-.67c-2.12-.92-3.47-3.22-4-4.41a.36.36,0,0,0-.66,0Zm0,0"/><path d="M12.48,55.81c-2.4-1-4-3.85-4.54-5a1.41,1.41,0,0,0-2.54,0c-.57,1.16-2.14,4-4.54,5a1.41,1.41,0,0,0,0,2.6c2.4,1,4,3.85,4.54,5a1.41,1.41,0,0,0,2.54,0c.57-1.16,2.14-4,4.54-5a1.41,1.41,0,0,0,0-2.6ZM6.67,61.7a12.42,12.42,0,0,0-4.15-4.59,12.42,12.42,0,0,0,4.15-4.59,12.43,12.43,0,0,0,4.15,4.59A12.42,12.42,0,0,0,6.67,61.7Zm0,0"/><path d="M40.29,9.89c2.83,1.22,4.68,4.53,5.35,5.9a1.66,1.66,0,0,0,3,0c.67-1.37,2.52-4.67,5.35-5.9a1.66,1.66,0,0,0,0-3.06C51.14,5.61,49.29,2.3,48.63.93a1.66,1.66,0,0,0-3,0C45,2.3,43.12,5.61,40.29,6.83a1.66,1.66,0,0,0,0,3.06ZM47.13,2.4a16.11,16.11,0,0,0,5.39,6,16.09,16.09,0,0,0-5.39,6,16.11,16.11,0,0,0-5.39-6,16.12,16.12,0,0,0,5.39-6Zm0,0"/><path d="M28.51,17.83c1.88.81,3.12,3,3.57,3.95a1.32,1.32,0,0,0,2.38,0c.45-.92,1.69-3.13,3.57-3.95a1.33,1.33,0,0,0,0-2.44c-1.88-.81-3.12-3-3.57-3.95a1.32,1.32,0,0,0-2.38,0c-.45.92-1.69,3.13-3.57,3.95a1.33,1.33,0,0,0,0,2.44Zm4.76-4.55a10.21,10.21,0,0,0,3,3.33,10.2,10.2,0,0,0-3,3.33,10.2,10.2,0,0,0-3-3.33,10.2,10.2,0,0,0,3-3.33Zm0,0"/><path d="M59.83,17.7a2.62,2.62,0,0,0-2.41-.29l-27,10.32a2.63,2.63,0,0,0-1.68,2.44V53.48A9.06,9.06,0,0,0,24,54.4c-4.13,2-6,6.68-4.2,10.38a7.05,7.05,0,0,0,4.58,3.68,8.39,8.39,0,0,0,2.2.29,9.08,9.08,0,0,0,4-.95,8.41,8.41,0,0,0,4.89-7.37.87.87,0,0,0,0-.11V33.94l18.62-7.11v4.5a1,1,0,1,0,1.92,0v-4.7A1.78,1.78,0,0,0,53.64,25l-18.9,7.21a1.79,1.79,0,0,0-1.14,1.66V60.21a.87.87,0,0,0,0,.13,6.47,6.47,0,0,1-3.82,5.74,6.9,6.9,0,0,1-4.85.53,5.16,5.16,0,0,1-3.36-2.68c-1.35-2.75.14-6.25,3.32-7.81a7,7,0,0,1,4.56-.6,1,1,0,0,0,1.17-.94V30.18a.7.7,0,0,1,.45-.65l27-10.32a.69.69,0,0,1,.94.65V50.43a6.47,6.47,0,0,1-3.82,5.74,6.9,6.9,0,0,1-4.85.52A5.16,5.16,0,0,1,47,54c-1.35-2.75.14-6.25,3.32-7.81a7,7,0,0,1,4.56-.6,1,1,0,0,0,1.17-.94V35.81a1,1,0,0,0-1.92,0v7.75a9.06,9.06,0,0,0-4.65.92c-4.13,2-6,6.68-4.2,10.38a7.05,7.05,0,0,0,4.58,3.68,8.82,8.82,0,0,0,6.2-.65A8.4,8.4,0,0,0,61,50.41V19.85a2.61,2.61,0,0,0-1.13-2.15Zm0,0"/><path d="M23.88,7.16a3.78,3.78,0,0,0-5.13-3.53L14.06,5.41a4.14,4.14,0,0,0-2.65,3.85V31.53a9.05,9.05,0,0,0-4.65.92,8.83,8.83,0,0,0-4.29,4.46,7.07,7.07,0,0,0,.05,5.83,1,1,0,0,0,1.73-.82c-1.29-2.73.21-6.21,3.35-7.75a7,7,0,0,1,4.56-.6,1,1,0,0,0,1.17-.94V9.26a2.21,2.21,0,0,1,1.41-2.05l4.68-1.79a1.86,1.86,0,0,1,1.36,3.47l-3.35,1.34a1.77,1.77,0,0,0-1.12,1.65V38.4a6.47,6.47,0,0,1-3.82,5.74A6.79,6.79,0,0,1,7,44.44a1,1,0,1,0-.72,1.78,8.19,8.19,0,0,0,3.06.58,9.1,9.1,0,0,0,4-.95,8.39,8.39,0,0,0,4.89-7.48V12l3.26-1.31a3.76,3.76,0,0,0,2.37-3.51Zm0,0"/></g></g></svg>