<svg xmlns="http://www.w3.org/2000/svg" viewBox="0 0 52.89 46.18"><defs><style>.cls-1{fill:#d9d9d9;}</style></defs><title>Asset 7mezclador_icon</title><g id="Layer_2" data-name="Layer 2"><g id="Capa_1" data-name="Capa 1"><path class="cls-1" d="M14.87,23.09A6.91,6.91,0,1,1,8,16.18a6.91,6.91,0,0,1,6.91,6.91Zm0,0"/><path class="cls-1" d="M33.36,14.28a6.91,6.91,0,1,1-6.91-6.91,6.91,6.91,0,0,1,6.91,6.91Zm0,0"/><path class="cls-1" d="M51.85,32.45a6.91,6.91,0,1,1-6.91-6.91,6.91,6.91,0,0,1,6.91,6.91Zm0,0"/><path d="M12.12,16.31V4A4,4,0,0,0,4,4V16.17A7.95,7.95,0,0,0,4,30V42.14a4,4,0,1,0,8.08,0V29.87a8,8,0,0,0,0-13.56ZM6.13,4A1.95,1.95,0,0,1,10,4V15.41a8,8,0,0,0-3.9-.06ZM10,42.14a1.95,1.95,0,1,1-3.9,0V30.83a8,8,0,0,0,3.9-.06ZM8,29a5.87,5.87,0,1,1,5.87-5.87A5.87,5.87,0,0,1,8,29Zm0,0"/><path d="M30.6,7.49V4a4,4,0,0,0-8.08,0V7.36a7.95,7.95,0,0,0,0,13.83V42.14a4,4,0,1,0,8.08,0V36.6a1,1,0,0,0-2.09,0v5.53a1.95,1.95,0,0,1-3.9,0V22A8,8,0,0,0,28.52,22v6.33a1,1,0,0,0,2.09,0V21.05a8,8,0,0,0,0-13.56ZM24.61,4a1.95,1.95,0,0,1,3.9,0V6.59a8,8,0,0,0-3.9-.05Zm1.84,16.1a5.87,5.87,0,1,1,5.87-5.87,5.87,5.87,0,0,1-5.87,5.87Zm0,0"/><path d="M52.89,32.45a8,8,0,0,0-3.8-6.78V4A4,4,0,0,0,41,4v21.5a7.95,7.95,0,0,0,0,13.84v2.76a4,4,0,1,0,8.08,0v-2.9a8,8,0,0,0,3.8-6.78ZM43.11,4A1.95,1.95,0,0,1,47,4V24.77a8,8,0,0,0-3.9-.06Zm-4,28.41a5.87,5.87,0,1,1,5.87,5.87,5.87,5.87,0,0,1-5.87-5.87ZM47,42.14a1.95,1.95,0,1,1-3.9,0V40.2a8,8,0,0,0,3.9-.06Zm0,0"/><path d="M29.56,31.41a1,1,0,1,0,1,1,1.06,1.06,0,0,0-1-1Zm0,0"/></g></g></svg>