<svg xmlns="http://www.w3.org/2000/svg" viewBox="0 0 14.2 22.46"><defs><style>.cls-1{fill:#333;}</style></defs><title>Asset 8nota_icon</title><g id="Layer_2" data-name="Layer 2"><g id="Capa_1" data-name="Capa 1"><path class="cls-1" d="M8.56,14.68c0-.06,0-.12,0-.17q0-5.87,0-11.75c0-.74,0-1.49,0-2.23A.5.5,0,0,1,9.3.06a.53.53,0,0,1,.27.32,8.27,8.27,0,0,0,.89,1.85,7.83,7.83,0,0,0,1.76,1.86,8.86,8.86,0,0,1,1.08,1,3.58,3.58,0,0,1,.89,2.1,5.6,5.6,0,0,1-.06,1.45.51.51,0,1,1-1-.18,3.62,3.62,0,0,0-.07-1.78,2.77,2.77,0,0,0-1-1.4,11.13,11.13,0,0,1-1.61-1.4c-.28-.32-.53-.67-.8-1l-.07-.08c0,.08,0,.12,0,.17q0,2.77,0,5.53,0,2.55,0,5.1c0,1.43,0,2.87,0,4.3a4.5,4.5,0,0,1-1,2.72,4.55,4.55,0,0,1-1.93,1.49,4.61,4.61,0,0,1-4.49-.42A4.58,4.58,0,0,1,0,17.26a4.59,4.59,0,0,1,2.24-3.67A4.61,4.61,0,0,1,5.85,13,4.68,4.68,0,0,1,8.5,14.64l0,0ZM4.78,21.44A3.79,3.79,0,1,0,1,17.66,3.78,3.78,0,0,0,4.78,21.44Z"/></g></g></svg>