<svg xmlns="http://www.w3.org/2000/svg" viewBox="0 0 60.63 56.2"><defs><style>.cls-1{fill:#d9d9d9;}</style></defs><title>Asset 3productor_icon</title><g id="Layer_2" data-name="Layer 2"><g id="Capa_1" data-name="Capa 1"><path class="cls-1" d="M41.37,53.71a2.37,2.37,0,0,1-1.67-2.9l4.29-16a2.37,2.37,0,0,1,2.9-1.67l4.57,1.22a2.37,2.37,0,0,1,1.67,2.9l-.39,1.45-3.9,14.55a2.37,2.37,0,0,1-2.9,1.67l-4.57-1.23Zm0,0"/><path class="cls-1" d="M14.69,54.94a2.37,2.37,0,0,1-2.9-1.67l-4.29-16a2.37,2.37,0,0,1,1.67-2.9l4.57-1.22a2.37,2.37,0,0,1,2.9,1.67l4.29,16a2.37,2.37,0,0,1-1.67,2.9l-4.57,1.23Zm0,0"/><path d="M59.28,38a28.67,28.67,0,0,0,1.33-8.41,29,29,0,0,0-9-20.93A30.64,30.64,0,0,0,30.32,0C14,0,0,13.21,0,29.58A28.66,28.66,0,0,0,1.36,38,3.57,3.57,0,0,0,.12,41.69L3.18,53.12a3.55,3.55,0,0,0,4.35,2.51l3.62-1A3.56,3.56,0,0,0,15,56.08l4.57-1.23a3.55,3.55,0,0,0,2.51-4.35l-4.29-16A3.55,3.55,0,0,0,13.45,32L8.87,33.22a3.53,3.53,0,0,0-1.28.64,20.9,20.9,0,0,1-.44-3.27,3.48,3.48,0,0,0,2.43-3c1-10,10.27-18.15,20.73-18.15S50.07,17.61,51,27.61a3.48,3.48,0,0,0,2.43,3A20.9,20.9,0,0,1,53,33.87a3.53,3.53,0,0,0-1.28-.64L47.19,32a3.55,3.55,0,0,0-4.35,2.51l-4.29,16a3.55,3.55,0,0,0,2.51,4.35l4.57,1.23a3.56,3.56,0,0,0,3.84-1.42l3.63,1a3.55,3.55,0,0,0,4.35-2.51l3.06-11.43A3.57,3.57,0,0,0,59.28,38ZM9.49,35.51l4.57-1.22a1.18,1.18,0,0,1,1.45.84l4.29,16A1.18,1.18,0,0,1,19,52.57l-.82.22c-.43.12-.86.18-1.28.3a2.85,2.85,0,0,0-.3.11,18,18,0,0,1-2.16.59A1.19,1.19,0,0,1,12.94,53L8.65,37A1.18,1.18,0,0,1,9.49,35.51Zm.86,16.92-3.43.92a1.18,1.18,0,0,1-1.45-.84L2.41,41.08a1.19,1.19,0,0,1,.76-1.43l.08,0,3.38-.91c.35.86-.28-1.11,3.72,13.7ZM2.42,30.76H4.79a24.12,24.12,0,0,0,1,5.73l-2.27.61a27,27,0,0,1-1.13-6.34Zm51-3.38C52.28,15.92,41.88,7.1,30.32,7.1s-22,8.82-23.08,20.28a1.16,1.16,0,0,1-1.16,1H2.42c.66-14.23,13.16-26,27.89-26s27.23,11.8,27.89,26H54.56a1.16,1.16,0,0,1-1.16-1Zm4.81,3.38a27,27,0,0,1-1.13,6.34l-2.27-.61a24.1,24.1,0,0,0,1-5.73ZM47.69,53a1.19,1.19,0,0,1-1.45.84l-.9-.24a10.59,10.59,0,0,0-1.12-.37c-.87-.16-1.7-.38-2.56-.61a1.18,1.18,0,0,1-.84-1.45l4.29-16a1.18,1.18,0,0,1,1.45-.84l4.57,1.22A1.18,1.18,0,0,1,52,37ZM58.23,41.08,55.16,52.51a1.18,1.18,0,0,1-1.45.84l-3.43-.92c4-14.82,3.38-12.84,3.72-13.7l3.46.93a1.18,1.18,0,0,1,.75,1.42Zm0,0"/></g></g></svg>